<svg width="24" height="24" viewBox="0 0 24 24" fill="none" xmlns="http://www.w3.org/2000/svg">
<g clip-path="url(#clip0_175_18)">
<path d="M20.4 0H3.6C1.61177 0 0 1.61177 0 3.6V20.4C0 22.3882 1.61177 24 3.6 24H20.4C22.3882 24 24 22.3882 24 20.4V3.6C24 1.61177 22.3882 0 20.4 0Z" fill="#25D366"/>
<path d="M5.76564 18.4218L6.42189 15.3749C5.57841 14.0445 5.24937 12.452 5.4965 10.8963C5.74362 9.34058 6.54993 7.92848 7.76414 6.92495C8.97835 5.92142 10.517 5.39544 12.0915 5.44568C13.6659 5.49592 15.1679 6.11893 16.3157 7.19783C17.4634 8.27672 18.1781 9.73735 18.3255 11.3057C18.4729 12.874 18.043 14.4422 17.1165 15.7161C16.1899 16.99 14.8303 17.8821 13.2928 18.2249C11.7553 18.5677 10.1456 18.3377 8.76564 17.578L5.76564 18.4218Z" fill="#25D366" stroke="white" stroke-width="1.5"/>
<path d="M14.4375 12.7968C14.2969 12.703 14.1563 12.6562 14.0156 12.8437L13.4531 13.5937C13.3125 13.6874 13.2188 13.7343 13.0313 13.6405C12.3281 13.2655 11.3438 12.8437 10.5 11.4374C10.4531 11.2499 10.5469 11.1562 10.6406 11.0624L11.0625 10.4062C11.1563 10.3124 11.1094 10.2187 11.0625 10.1249L10.5 8.76555C10.3594 8.39055 10.2188 8.43742 10.0781 8.43742H9.70315C9.6094 8.43742 9.4219 8.4843 9.2344 8.6718C8.20315 9.70305 8.62502 11.1562 9.37502 12.0937C9.51565 12.2812 10.4531 13.9687 12.4688 14.8593C13.9688 15.5155 14.2969 15.4218 14.7188 15.328C15.2344 15.2812 15.75 14.8593 15.9844 14.4374C16.0313 14.2968 16.2656 13.6874 16.0781 13.5937" fill="white"/>
</g>
<defs>
<clipPath id="clip0_175_18">
<rect width="24" height="24" fill="white"/>
</clipPath>
</defs>
</svg>
