<svg width="24" height="24" viewBox="0 0 24 24" fill="none" xmlns="http://www.w3.org/2000/svg">
<path d="M22.5 12C22.5 9.21523 21.3937 6.54451 19.4246 4.57538C17.4554 2.60625 14.7847 1.5 12 1.5C9.35597 1.49756 6.80839 2.49269 4.86609 4.28661C2.9238 6.08053 1.72979 8.54118 1.52256 11.177C1.31532 13.8129 2.11013 16.4299 3.74822 18.5053C5.3863 20.5807 7.74707 21.9617 10.359 22.3725V15.0345H7.69495V12H10.3605V9.687C10.3605 7.056 11.9279 5.601 14.3265 5.601C15.4754 5.601 16.677 5.8065 16.677 5.8065V8.391H15.3524C14.0475 8.391 13.6425 9.201 13.6425 10.0305V12H16.554L16.089 15.0345H13.641V22.3725C16.1107 21.9814 18.3599 20.7219 19.9838 18.8204C21.6078 16.919 22.5 14.5005 22.5 12Z" fill="#1877F2"/>
<path d="M16.0874 15.0346L16.5524 12.0001H13.6409V10.0306C13.6409 9.20111 14.0459 8.39111 15.3509 8.39111H16.6754V5.80511C16.6754 5.80511 15.4739 5.59961 14.3249 5.59961C11.9249 5.59961 10.3589 7.05461 10.3589 9.68561V12.0001H7.69495V15.0346H10.3604V22.3726C11.4478 22.5437 12.5551 22.5437 13.6424 22.3726V15.0346H16.0874Z" fill="white"/>
</svg>
