<svg width="47" height="48" viewBox="0 0 47 48" fill="none" xmlns="http://www.w3.org/2000/svg">
<rect x="0.25" y="0.25" width="45.8327" height="47.5" rx="22.9163" stroke="#B18637" stroke-width="0.5"/>
<path d="M17.6485 19.014C17.3781 19.1016 17.2174 19.298 17.2377 19.5563C17.2582 19.8154 17.475 20.0186 17.7532 20.038C17.7958 20.0409 33.0743 20.0409 33.6824 20.0396C34.0853 20.0388 34.3303 19.8358 34.3295 19.5073C34.3287 19.1858 34.1124 19.0102 33.6966 18.9921C33.6466 18.99 33.5967 18.9829 33.5356 18.9769C33.5356 17.0003 33.5356 15.0355 33.5356 13.0501C33.6261 13.0501 33.7019 13.0534 33.7772 13.0494C34.1016 13.0326 34.3301 12.8166 34.3327 12.527C34.3354 12.2225 34.1103 12.0034 33.7662 12.0024C32.4559 11.9987 18.1181 12 17.8271 12.0015C17.475 12.0032 17.2414 12.2099 17.2417 12.5112C17.242 12.8335 17.4626 13.0383 17.8232 13.0499C17.8898 13.052 17.9567 13.0502 18.036 13.0502C18.036 15.0281 18.036 16.9866 18.036 18.9505C17.8587 18.9603 17.7785 18.9719 17.6485 19.014Z" fill="#B18637"/>
<path d="M33.8043 34.9532C33.7207 34.9473 33.636 34.9523 33.5152 34.9523V29.0234H21.6655C22.1455 30.3149 22.2603 31.4917 22.0167 32.6145C21.7079 34.0367 20.8892 35.2222 19.7736 35.9996C23.2059 36.0009 30.2346 35.9989 33.5209 35.9986C33.6149 35.9986 33.7094 36.0013 33.8031 35.9954C34.1217 35.9751 34.3352 35.7653 34.3302 35.4808C34.3252 35.2004 34.101 34.9739 33.8043 34.9532Z" fill="#B18637"/>
<path d="M33.8825 26.9843C33.7739 26.9657 33.6624 26.9624 33.5266 26.9498V21.0522H18.045V22.5422C18.4928 23.6524 19.1522 24.6918 19.8999 25.8285L19.9507 25.9059C20.3938 26.5794 20.8484 27.2703 21.2281 28.0242C25.3264 28.0248 29.4247 28.0248 33.5229 28.0245C33.6424 28.0242 33.7639 28.0282 33.8813 28.01C34.1435 27.9686 34.3294 27.7484 34.3309 27.4954C34.3322 27.235 34.1569 27.0315 33.8825 26.9843Z" fill="#B18637"/>
<path d="M21.0435 32.403C21.2866 31.2832 21.0707 30.2059 20.651 29.1608C20.2495 28.1611 19.6553 27.2695 19.0675 26.3755C18.2843 25.1846 17.5147 23.9873 17.0146 22.6404C16.8582 22.2189 16.7357 21.7886 16.6262 21.3191C16.6131 21.2633 16.5341 21.2626 16.5198 21.318C16.4524 21.5793 16.3927 21.8161 16.325 22.0505C15.9164 23.4627 15.1862 24.7155 14.3943 25.9381C13.7821 26.8833 13.1355 27.8078 12.6514 28.8306C12.192 29.8014 11.9235 30.8139 12.0193 31.8958C12.2009 33.9472 13.7727 35.6146 15.8156 35.9397C18.2563 36.3282 20.5223 34.8037 21.0435 32.403ZM16.6536 24.6021C16.504 25.5174 16.1125 26.3428 15.6995 27.1594C15.2298 28.0882 14.7051 28.9883 14.2776 29.9393C13.855 30.88 13.6707 31.8504 13.8276 32.8791C13.8903 33.2904 13.9815 33.6908 14.1659 34.0618C14.207 34.1445 14.1055 34.2239 14.034 34.1653C14.0333 34.1649 14.0328 34.1644 14.0322 34.1639C13.4928 33.7275 13.1618 33.1632 13.0213 32.488C12.808 31.4618 13.0544 30.5061 13.4886 29.5838C13.8675 28.7791 14.3764 28.0532 14.8783 27.3237C15.5829 26.2991 16.2832 25.2728 16.6046 24.0519C16.6131 24.0195 16.6605 24.0244 16.6623 24.0577C16.6713 24.2204 16.6781 24.452 16.6536 24.6021Z" fill="#B18637"/>
</svg>
